<svg width="500" height="500" viewBox="0 0 500 500" fill="none" xmlns="http://www.w3.org/2000/svg">
<rect width="500" height="500" rx="100" fill="black"/>
<path d="M142.662 127.523C128.529 128.19 127.462 128.456 123.995 131.79C120.929 134.856 120.395 136.59 120.395 142.723C120.262 149.39 120.662 150.59 124.662 154.456L128.929 158.856L233.329 159.523C332.129 160.19 337.729 160.323 341.195 162.723C348.662 167.656 349.329 181.656 342.529 188.323C340.529 190.323 322.129 199.656 301.595 209.123C246.929 234.456 184.395 263.256 161.995 273.39C140.662 283.256 133.995 288.056 127.595 298.323C111.995 323.79 121.329 357.256 147.329 369.256C153.595 372.19 153.862 372.19 261.995 372.59L370.529 372.856L375.062 368.323C378.929 364.456 379.595 362.856 379.595 357.656C379.595 354.056 378.662 349.923 377.462 348.056C372.529 340.59 376.262 340.856 265.595 340.856C154.929 340.856 158.662 341.123 153.729 333.656C150.662 328.856 151.062 320.723 154.662 315.39C157.062 311.79 161.329 309.256 175.595 302.723C343.462 226.19 356.529 219.923 364.395 212.19C375.729 200.856 380.529 188.056 379.329 171.39C377.729 150.456 360.662 131.123 340.662 128.056C334.129 126.99 164.929 126.59 142.662 127.523Z" fill="white"/>
</svg>
